# xmcd
#
# Track frame offsets: 
#        150
#        11321
#        23929
#        36244
#        46370
#        55907
#        68001
#        78390
#        89021
#        100441
#        111462
#        124020
#        135819
#        147899
#        157203
#        167947
#        181244
#        192705
#        204348
#        217389
#
# Disc length: 3062 seconds
#
# Revision: 0
# Processed by: cddbd v1.5.2PL0 Copyright (c) Steve Scherf et al.
# Submitted via: ExactAudioCopy v1.0b3
#
DISCID=290bf414
DTITLE=Mary Wells - The One Who Really Loves You and Two Lovers
DYEAR=1962
DGENRE=Motown - Classic
TTITLE0=The One Who Really Loves You
TTITLE1=Two Wrongs Don't Make A Right
TTITLE2=You Beat Me To The Punch
TTITLE3=I've Got A Notion
TTITLE4=The Day Will Come
TTITLE5=Strange Love
TTITLE6=You're My Desire
TTITLE7=I'll Still Be Around
TTITLE8=She Don't Love You
TTITLE9=Drifting Love
TTITLE10=Two Lovers
TTITLE11=Guess Who
TTITLE12=My 2 Arms - U =Tears
TTITLE13=Goody-Goody
TTITLE14=Stop Right Here
TTITLE15=Laughing Boy
TTITLE16=Looking Back
TTITLE17=(I Guess There's) No Love
TTITLE18=Was It Worth It
TTITLE19=Operator
EXTD=
EXTT0=
EXTT1=
EXTT2=
EXTT3=
EXTT4=
EXTT5=
EXTT6=
EXTT7=
EXTT8=
EXTT9=
EXTT10=
EXTT11=
EXTT12=
EXTT13=
EXTT14=
EXTT15=
EXTT16=
EXTT17=
EXTT18=
EXTT19=
PLAYORDER=
